<svg width="696" height="103" viewBox="0 0 696 103" fill="none" xmlns="http://www.w3.org/2000/svg">
<g opacity="0.8" clip-path="url(#clip0_2_62)">
<path d="M26.4939 17.9258C29.5266 15.8955 33.0911 14.8774 37.1756 14.8774C39.437 14.8774 41.5406 15.2011 43.4806 15.8484C45.4207 16.4958 47.1386 17.4256 48.6287 18.6438C50.1187 19.862 51.34 21.3333 52.2925 23.0517C53.2449 24.776 53.876 26.7357 54.1799 28.9367H71.0731C70.5355 24.3288 69.3026 20.2387 67.3918 16.6606C65.4752 13.0883 63.0034 10.0634 59.9707 7.5917C56.938 5.11999 53.4612 3.23677 49.5402 1.94206C45.6193 0.647354 41.3712 0 36.7958 0C29.8539 0 23.6073 1.60073 18.0561 4.79631C12.5048 7.99189 8.10478 12.6352 4.86754 18.7203C1.61862 24.8054 0 32.1853 0 40.8598C0 49.5344 1.60109 56.873 4.80326 62.9582C8.00544 69.0433 12.3763 73.6925 17.9158 76.8998C23.4554 80.1131 29.7487 81.7138 36.7958 81.7138C41.862 81.7138 46.4023 80.9429 50.4284 79.401C54.4545 77.8591 57.9255 75.764 60.8414 73.1099C63.7572 70.4557 66.0887 67.4367 67.8242 64.0587C69.5597 60.6807 70.6466 57.1673 71.0848 53.5127L54.1916 53.4362C53.8059 55.5607 53.1164 57.4498 52.1289 59.1094C51.1413 60.7689 49.8967 62.1696 48.4066 63.323C46.9166 64.4765 45.2103 65.3475 43.2995 65.9419C41.3829 66.5363 39.3085 66.8364 37.0704 66.8364C33.0853 66.8364 29.5734 65.8536 26.5407 63.8821C23.5079 61.9165 21.1472 59.0034 19.4643 55.1428C17.7814 51.2822 16.94 46.5213 16.94 40.8481C16.94 35.1749 17.7756 30.6375 19.4468 26.7711C21.118 22.8987 23.4729 19.9503 26.5056 17.9141L26.4939 17.9258Z" fill="url(#paint0_linear_2_62)"/>
<path d="M109.733 20.121C106.414 20.121 103.486 21.0743 100.939 22.9752C98.391 24.8761 96.5795 27.6832 95.4985 31.3849H94.8791V20.9743H78.95V80.631H95.3758V46.8802C95.3758 44.4497 95.9192 42.2958 97.0178 40.4302C98.1105 38.5647 99.6005 37.1111 101.494 36.0635C103.387 35.016 105.537 34.4922 107.951 34.4922C109.084 34.4922 110.329 34.5805 111.691 34.7629C113.052 34.9454 114.121 35.1514 114.893 35.3868V20.7036C114.174 20.5211 113.338 20.3799 112.386 20.274C111.433 20.1739 110.545 20.121 109.727 20.121H109.733Z" fill="url(#paint1_linear_2_62)"/>
<path d="M146.844 64.7825H146.225L133.96 20.9743H116.681L137.927 82.3435L136.963 84.8682C136.244 86.7337 135.31 88.052 134.17 88.8288C133.025 89.6056 131.675 89.9705 130.121 89.9175C128.566 89.8646 126.825 89.5409 124.897 88.9465L121.192 101.299C122.372 101.788 123.874 102.2 125.685 102.523C127.497 102.847 129.443 103.012 131.529 103.012C135.59 103.012 139.061 102.359 141.942 101.052C144.823 99.7456 147.207 97.8918 149.094 95.4966C150.981 93.1014 152.483 90.3001 153.588 87.0868L176.611 20.9802H159.221L146.839 64.7884L146.844 64.7825Z" fill="url(#paint2_linear_2_62)"/>
<path d="M226.963 23.5931C223.311 21.3274 219.326 20.1975 215.007 20.1975C211.688 20.1975 208.919 20.7624 206.698 21.8865C204.472 23.0105 202.672 24.4112 201.299 26.0825C199.926 27.7539 198.874 29.3899 198.155 30.9965H197.425V20.9743H181.227V103.006H197.653V71.0795H198.155C198.903 72.7391 199.978 74.3752 201.392 75.9935C202.806 77.6119 204.624 78.9537 206.85 80.013C209.071 81.0723 211.782 81.6079 214.967 81.6079C219.466 81.6079 223.533 80.4368 227.173 78.0945C230.814 75.7523 233.689 72.2977 235.81 67.7251C237.931 63.1583 238.989 57.5439 238.989 50.888C238.989 44.232 237.896 38.3646 235.711 33.8154C233.525 29.2722 230.609 25.8648 226.957 23.599L226.963 23.5931ZM220.775 59.9862C219.811 62.6404 218.402 64.7119 216.55 66.2008C214.698 67.6897 212.436 68.4313 209.76 68.4313C207.084 68.4313 204.863 67.7015 203.011 66.2361C201.159 64.7708 199.744 62.7228 198.769 60.0804C197.793 57.438 197.302 54.3425 197.302 50.7997C197.302 47.2569 197.793 44.1731 198.769 41.5543C199.744 38.9413 201.153 36.9169 202.993 35.4927C204.834 34.0685 207.09 33.3564 209.76 33.3564C212.43 33.3564 214.733 34.092 216.585 35.5692C218.437 37.0463 219.84 39.0884 220.787 41.7073C221.739 44.3203 222.212 47.351 222.212 50.7938C222.212 54.2365 221.727 57.3262 220.763 59.9803L220.775 59.9862Z" fill="url(#paint3_linear_2_62)"/>
<path d="M274.335 67.9134C273.564 68.0546 272.793 68.1252 272.021 68.1252C270.917 68.1252 269.947 67.9546 269.111 67.6191C268.276 67.2837 267.627 66.6952 267.165 65.8536C266.704 65.0121 266.47 63.8292 266.47 62.2991V33.4035H277.613V20.9743H266.47V6.67952H250.044V20.9743H241.945V33.4035H250.044V64.4765C250.021 68.3842 250.827 71.621 252.475 74.1868C254.123 76.7527 256.425 78.6418 259.4 79.8541C262.368 81.0723 265.833 81.602 269.795 81.449C271.928 81.3725 273.739 81.1547 275.235 80.8075C276.725 80.4603 277.882 80.1543 278.706 79.8953L276.123 67.5838C275.714 67.6603 275.118 67.7721 274.347 67.9134H274.335Z" fill="url(#paint4_linear_2_62)"/>
<path d="M326.166 24.058C321.807 21.4804 316.636 20.1916 310.646 20.1916C304.657 20.1916 299.479 21.4804 295.126 24.058C290.767 26.6357 287.407 30.2315 285.04 34.8571C282.674 39.4769 281.493 44.8734 281.493 51.0351C281.493 57.1967 282.674 62.5109 285.04 67.1366C287.407 71.7563 290.767 75.358 295.126 77.9356C299.485 80.5132 304.657 81.8021 310.646 81.8021C316.636 81.8021 321.813 80.5132 326.166 77.9356C330.525 75.358 333.885 71.7622 336.252 67.1366C338.618 62.5168 339.799 57.1496 339.799 51.0351C339.799 44.9205 338.618 39.4827 336.252 34.8571C333.885 30.2373 330.525 26.6357 326.166 24.058ZM321.69 60.1981C320.749 62.917 319.37 65.0591 317.547 66.6245C315.724 68.19 313.445 68.9727 310.722 68.9727C307.999 68.9727 305.662 68.19 303.798 66.6245C301.934 65.0591 300.531 62.917 299.596 60.1981C298.656 57.4792 298.188 54.3837 298.188 50.9174C298.188 47.4511 298.656 44.3556 299.596 41.6367C300.537 38.9178 301.934 36.7697 303.798 35.1867C305.662 33.6095 307.97 32.815 310.722 32.815C313.474 32.815 315.724 33.6036 317.547 35.1867C319.37 36.7639 320.755 38.9178 321.69 41.6367C322.631 44.3556 323.098 47.4511 323.098 50.9174C323.098 54.3837 322.631 57.4792 321.69 60.1981Z" fill="url(#paint5_linear_2_62)"/>
<path d="M400.243 42.4135C398.133 40.5244 395.638 38.9296 392.763 37.6348C389.883 36.3401 386.721 35.3044 383.274 34.5275L376.18 32.8209C374.456 32.4325 372.837 31.9617 371.318 31.4026C369.799 30.8435 368.466 30.1844 367.31 29.4193C366.153 28.6543 365.247 27.7421 364.592 26.6828C363.938 25.6235 363.634 24.3758 363.687 22.9517C363.687 21.245 364.183 19.7149 365.171 18.3672C366.158 17.0195 367.596 15.9661 369.472 15.2011C371.347 14.436 373.65 14.0535 376.373 14.0535C380.381 14.0535 383.56 14.9186 385.897 16.6547C388.235 18.3908 389.561 20.8213 389.871 23.958H405.876C405.8 19.2205 404.538 15.0539 402.095 11.4523C399.653 7.85653 396.24 5.04348 391.858 3.02491C387.475 1.00634 382.35 -0.00588608 376.489 -0.00588608C370.629 -0.00588608 365.586 1.00634 361.063 3.02491C356.54 5.04348 352.982 7.85653 350.399 11.4523C347.816 15.0539 346.536 19.2617 346.56 24.0757C346.536 29.9549 348.447 34.6276 352.304 38.0998C356.16 41.5719 361.419 44.1202 368.075 45.7503L376.676 47.9278C379.557 48.6281 381.994 49.4049 383.987 50.2583C385.979 51.1116 387.498 52.1474 388.539 53.3656C389.579 54.5838 390.099 56.0844 390.099 57.8735C390.099 59.792 389.52 61.4869 388.363 62.9641C387.206 64.4412 385.582 65.5947 383.484 66.4186C381.386 67.2484 378.926 67.6603 376.098 67.6603C373.27 67.6603 370.64 67.2131 368.367 66.3185C366.094 65.424 364.277 64.094 362.927 62.3167C361.577 60.5394 360.812 58.3208 360.63 55.6548H344.474C344.602 61.3751 345.981 66.1773 348.616 70.0438C351.252 73.9161 354.927 76.8351 359.649 78.8007C364.364 80.7663 369.916 81.755 376.291 81.755C382.666 81.755 388.211 80.7781 392.775 78.8242C397.339 76.8704 400.833 74.1103 403.264 70.5499C405.695 66.9894 406.922 62.7757 406.945 57.9088C406.922 54.5955 406.32 51.6589 405.151 49.093C403.983 46.5271 402.341 44.3026 400.237 42.4135H400.243Z" fill="url(#paint6_linear_2_62)"/>
<path d="M459.764 23.5931C456.111 21.3274 452.126 20.1975 447.808 20.1975C444.489 20.1975 441.719 20.7624 439.499 21.8865C437.272 23.0105 435.473 24.4112 434.099 26.0825C432.726 27.7539 431.674 29.3899 430.956 30.9965H430.225V20.9743H414.027V103.006H430.453V71.0795H430.956C431.704 72.7391 432.779 74.3752 434.193 75.9935C435.607 77.6119 437.424 78.9537 439.651 80.013C441.871 81.0723 444.582 81.6079 447.767 81.6079C452.266 81.6079 456.333 80.4368 459.974 78.0945C463.614 75.7523 466.489 72.2977 468.61 67.7251C470.732 63.1583 471.789 57.5439 471.789 50.888C471.789 44.232 470.697 38.3646 468.511 33.8154C466.326 29.2722 463.41 25.8648 459.758 23.599L459.764 23.5931ZM453.575 59.9862C452.611 62.6404 451.203 64.7119 449.351 66.2008C447.498 67.6897 445.237 68.4313 442.561 68.4313C439.884 68.4313 437.664 67.7015 435.812 66.2361C433.959 64.7708 432.545 62.7228 431.569 60.0804C430.593 57.438 430.103 54.3425 430.103 50.7997C430.103 47.2569 430.593 44.1731 431.569 41.5543C432.545 38.9413 433.953 36.9169 435.794 35.4927C437.635 34.0685 439.89 33.3564 442.561 33.3564C445.231 33.3564 447.533 34.092 449.386 35.5692C451.238 37.0463 452.64 39.0884 453.587 41.7073C454.54 44.3203 455.013 47.351 455.013 50.7938C455.013 54.2365 454.528 57.3262 453.564 59.9803L453.575 59.9862Z" fill="url(#paint7_linear_2_62)"/>
<path d="M524.047 22.8987C520.973 21.0979 517.379 20.1975 513.266 20.1975C508.766 20.1975 505.026 21.2038 502.04 23.2106C499.06 25.2174 496.898 27.9834 495.56 31.5026H494.865V1.08873H478.901V80.6309H495.326V46.1387C495.35 43.5728 495.846 41.3836 496.811 39.5534C497.775 37.7231 499.113 36.3342 500.819 35.3809C502.531 34.4216 504.501 33.9449 506.739 33.9449C510.081 33.9449 512.681 34.9689 514.545 37.011C516.409 39.059 517.327 41.9192 517.303 45.5914V80.6251H533.729V42.643C533.753 37.9821 532.911 33.9743 531.205 30.6199C529.493 27.2654 527.103 24.6878 524.029 22.8928L524.047 22.8987Z" fill="url(#paint8_linear_2_62)"/>
<path d="M589.048 27.7303C586.518 25.2174 583.562 23.3342 580.178 22.0807C576.795 20.8272 573.154 20.1975 569.245 20.1975C563.437 20.1975 558.377 21.4922 554.07 24.0816C549.763 26.671 546.427 30.2844 544.06 34.916C541.694 39.5534 540.513 44.9382 540.513 51.0763C540.513 57.2144 541.694 62.811 544.06 67.4073C546.427 72.0035 549.798 75.5522 554.181 78.0474C558.564 80.5486 563.805 81.7962 569.894 81.7962C574.779 81.7962 579.091 81.037 582.831 79.5246C586.571 78.0121 589.633 75.8876 592.011 73.1569C594.389 70.4263 595.961 67.2189 596.733 63.5467L581.54 62.5345C580.973 64.0351 580.149 65.3063 579.074 66.3421C577.993 67.3778 576.696 68.1547 575.176 68.6725C573.657 69.1904 571.986 69.4494 570.163 69.4494C567.41 69.4494 565.032 68.8668 563.028 67.7015C561.024 66.5363 559.475 64.8767 558.382 62.7287C557.29 60.5806 556.746 58.0265 556.746 55.0781V55.0369H597.083V50.4937C597.083 45.4208 596.376 40.9834 594.962 37.1935C593.548 33.3976 591.573 30.2491 589.043 27.7362L589.048 27.7303ZM556.77 44.7793C556.869 42.6371 557.412 40.6715 558.406 38.8942C559.487 36.9639 560.983 35.4221 562.899 34.2745C564.816 33.121 567.019 32.5443 569.514 32.5443C572.009 32.5443 574.008 33.068 575.819 34.1156C577.63 35.1631 579.05 36.6108 580.079 38.447C581.107 40.2831 581.622 42.3958 581.622 44.7793H556.77Z" fill="url(#paint9_linear_2_62)"/>
<path d="M639.95 20.7036C639.232 20.5211 638.396 20.3799 637.443 20.274C636.491 20.1739 635.603 20.121 634.785 20.121C631.466 20.121 628.538 21.0743 625.99 22.9752C623.443 24.8761 621.631 27.6832 620.55 31.3849H619.931V20.9743H604.002V80.631H620.428V46.8802C620.428 44.4497 620.971 42.2958 622.069 40.4302C623.162 38.5647 624.652 37.1111 626.546 36.0635C628.439 35.016 630.589 34.4922 633.003 34.4922C634.136 34.4922 635.381 34.5805 636.742 34.7629C638.104 34.9454 639.173 35.1514 639.944 35.3868V20.7036H639.95Z" fill="url(#paint10_linear_2_62)"/>
<path d="M696 55.0369V50.4937C696 45.4208 695.293 40.9834 693.879 37.1935C692.465 33.3976 690.49 30.2491 687.96 27.7362C685.429 25.2233 682.473 23.3401 679.089 22.0866C675.706 20.833 672.065 20.2033 668.156 20.2033C662.348 20.2033 657.288 21.4981 652.981 24.0875C648.674 26.6769 645.338 30.2903 642.971 34.9218C640.605 39.5592 639.424 44.9441 639.424 51.0822C639.424 57.2203 640.605 62.8169 642.971 67.4131C645.338 72.0094 648.71 75.5581 653.092 78.0533C657.475 80.5544 662.716 81.8021 668.805 81.8021C673.69 81.8021 678.002 81.0429 681.742 79.5304C685.482 78.018 688.544 75.8935 690.922 73.1628C693.3 70.4322 694.872 67.2248 695.644 63.5526L680.451 62.5403C679.884 64.041 679.06 65.3122 677.985 66.348C676.904 67.3837 675.607 68.1605 674.087 68.6784C672.568 69.1963 670.897 69.4553 669.074 69.4553C666.321 69.4553 663.943 68.8726 661.939 67.7074C659.935 66.5422 658.386 64.8826 657.293 62.7345C656.201 60.5865 655.657 58.0324 655.657 55.084V55.0428H695.994L696 55.0369ZM661.81 34.2745C663.727 33.121 665.93 32.5443 668.425 32.5443C670.92 32.5443 672.919 33.068 674.73 34.1156C676.542 35.1631 677.961 36.6108 678.99 38.447C680.018 40.2831 680.533 42.3958 680.533 44.7793H655.681C655.78 42.6371 656.323 40.6715 657.317 38.8942C658.398 36.9639 659.894 35.4221 661.81 34.2745Z" fill="url(#paint11_linear_2_62)"/>
</g>
<defs>
<linearGradient id="paint0_linear_2_62" x1="94.5051" y1="67.9193" x2="569.017" y2="287.791" gradientUnits="userSpaceOnUse">
<stop stop-color="white"/>
<stop offset="1" stop-color="white" stop-opacity="0.5"/>
</linearGradient>
<linearGradient id="paint1_linear_2_62" x1="101.505" y1="52.8182" x2="576.017" y2="272.69" gradientUnits="userSpaceOnUse">
<stop stop-color="white"/>
<stop offset="1" stop-color="white" stop-opacity="0.5"/>
</linearGradient>
<linearGradient id="paint2_linear_2_62" x1="106.817" y1="41.3483" x2="581.328" y2="261.22" gradientUnits="userSpaceOnUse">
<stop stop-color="white"/>
<stop offset="1" stop-color="white" stop-opacity="0.5"/>
</linearGradient>
<linearGradient id="paint3_linear_2_62" x1="115.898" y1="21.757" x2="590.409" y2="241.628" gradientUnits="userSpaceOnUse">
<stop stop-color="white"/>
<stop offset="1" stop-color="white" stop-opacity="0.5"/>
</linearGradient>
<linearGradient id="paint4_linear_2_62" x1="134.001" y1="-17.3138" x2="608.512" y2="202.558" gradientUnits="userSpaceOnUse">
<stop stop-color="white"/>
<stop offset="1" stop-color="white" stop-opacity="0.5"/>
</linearGradient>
<linearGradient id="paint5_linear_2_62" x1="139.599" y1="-29.3899" x2="614.11" y2="190.481" gradientUnits="userSpaceOnUse">
<stop stop-color="white"/>
<stop offset="1" stop-color="white" stop-opacity="0.5"/>
</linearGradient>
<linearGradient id="paint6_linear_2_62" x1="155.072" y1="-62.7875" x2="629.583" y2="157.084" gradientUnits="userSpaceOnUse">
<stop stop-color="white"/>
<stop offset="1" stop-color="white" stop-opacity="0.5"/>
</linearGradient>
<linearGradient id="paint7_linear_2_62" x1="157.532" y1="-68.0899" x2="632.043" y2="151.782" gradientUnits="userSpaceOnUse">
<stop stop-color="white"/>
<stop offset="1" stop-color="white" stop-opacity="0.5"/>
</linearGradient>
<linearGradient id="paint8_linear_2_62" x1="174.974" y1="-105.737" x2="649.486" y2="114.135" gradientUnits="userSpaceOnUse">
<stop stop-color="white"/>
<stop offset="1" stop-color="white" stop-opacity="0.5"/>
</linearGradient>
<linearGradient id="paint9_linear_2_62" x1="185.831" y1="-129.171" x2="660.343" y2="90.7005" gradientUnits="userSpaceOnUse">
<stop stop-color="white"/>
<stop offset="1" stop-color="white" stop-opacity="0.5"/>
</linearGradient>
<linearGradient id="paint10_linear_2_62" x1="195.403" y1="-149.821" x2="669.914" y2="70.05" gradientUnits="userSpaceOnUse">
<stop stop-color="white"/>
<stop offset="1" stop-color="white" stop-opacity="0.5"/>
</linearGradient>
<linearGradient id="paint11_linear_2_62" x1="203.52" y1="-167.347" x2="678.031" y2="52.5241" gradientUnits="userSpaceOnUse">
<stop stop-color="white"/>
<stop offset="1" stop-color="white" stop-opacity="0.5"/>
</linearGradient>
<clipPath id="clip0_2_62">
<rect width="696" height="103" fill="white"/>
</clipPath>
</defs>
</svg>
